<svg height="511pt" viewBox="0 -90 511.997 511" width="511pt" xmlns="http://www.w3.org/2000/svg"><g fill-rule="evenodd"><path d="m502 199.890625v-189.390625h-187.265625c126.445313 0 187.265625 87.539062 187.265625 189.390625zm0 0" fill="#e59123"/><path d="m314.734375 10.5v189.390625h187.265625c0-101.851563-60.820312-189.390625-187.265625-189.390625zm0 0" fill="#f4ab38"/><path d="m314.734375 199.890625h70.648437v49.375h-70.648437zm0 0" fill="#e59123"/><path d="m314.734375 249.265625c5.773437 46.367187 37.796875 71.929687 70.648437 71.929687v-71.929687zm0 0" fill="#f4ab38"/><path d="m385.382812 249.265625v71.929687c72.800782 0 116.617188-53.015624 116.617188-121.304687h-116.617188zm0 0" fill="#f4ab38"/><path d="m385.382812 322.039062h116.617188v-122.148437c0 68.289063-43.816406 121.304687-116.617188 121.304687zm0 0" fill="#e59123"/><path d="m314.734375 249.265625v72.773437h70.648437v-.84375c-32.851562 0-64.871093-25.5625-70.648437-71.929687zm0 0" fill="#e59123"/><path d="m314.734375 199.890625v-180.726563c-92.449219 20.648438-185.21875 87.6875-228.34375 302.875h228.34375zm0 0" fill="#f4ab38"/><path d="m314.734375 10.5h-243.503906v135.945312c66.714843-115.472656 161.296875-133.46875 243.503906-135.945312zm0 0" fill="#e59123"/></g><path d="m502 .5h-492c-5.523438 0-10 4.476562-10 10v311.539062.007813c0 1.015625.152344 2.007813.445312 2.949219.070313.234375.160157.464844.25.691406.027344.070312.046876.144531.078126.210938.097656.234374.210937.460937.324218.683593.03125.0625.058594.125.089844.1875.105469.191407.222656.375.335938.5625.058593.085938.105468.179688.164062.269531.097656.140626.203125.277344.304688.414063.09375.121094.179687.246094.277343.367187.074219.089844.160157.175782.238281.265626.136719.15625.269532.308593.414063.453124.046875.050782.101563.09375.152344.140626.183593.175781.367187.351562.5625.511718.019531.019532.046875.035156.070312.054688.226563.183594.457031.359375.699219.523437.023438.015625.046875.027344.066406.039063.246094.164062.496094.320312.753906.460937.867188.46875 1.808594.8125 2.804688 1.011719.023438.003906.042969.007812.0625.011719.296875.054687.59375.101562.898438.132812.339843.035157.679687.054688 1.015624.054688.015626 0 .03125-.003907.046876-.003907h491.941406c5.523437 0 10-4.476562 10-10v-311.539062c.003906-5.523438-4.472656-10-9.996094-10zm-126.617188 309.695312c-20.375-4.027343-41.164062-20.390624-48.664062-50.929687h48.664062zm0-70.929687h-50.648437v-29.375h50.648437zm-70.648437 72.773437h-282.445313c52.164063-242.945312 170.589844-285.648437 282.445313-291.136718zm20-11.214843c3.300781 4.183593 6.890625 7.917969 10.695313 11.214843h-10.695313zm70.648437-51.558594v-39.375h96.28125c-3.859374 57.589844-41.203124 96.710937-96.28125 100.921875zm-10-59.375h-60.648437v-169.183594c118.144531 4.613281 163.503906 91.015625 167.03125 169.183594zm-186.546874-169.390625c-21.773438 8.179688-43.546876 19.683594-64.328126 35.898438-30.496093 23.800781-56.851562 56.289062-78.332031 96.566406-13.777343 25.824218-25.867187 55.453125-36.175781 88.5625v-221.027344zm293.164062 291.539062h-36.472656c8.347656-5.308593 15.988281-11.6875 22.820312-19.113281 5.101563-5.542969 9.65625-11.613281 13.652344-18.125zm-28.769531-251.710937c-14.957031-16.695313-32.886719-30.023437-53.339844-39.828125h82.109375v83.914062c-7.582031-16.34375-17.21875-31.191406-28.769531-44.085937zm0 0"/><path d="m155.144531 292.167969h1.851563c5.523437 0 10-4.476563 10-10 0-5.523438-4.476563-10-10-10h-1.851563c-5.523437 0-10 4.476562-10 10 0 5.523437 4.476563 10 10 10zm0 0"/><path d="m53.441406 282.167969c0 5.523437 4.480469 10 10 10h63.910156c5.523438 0 10-4.476563 10-10 0-5.523438-4.476562-10-10-10h-63.910156c-5.523437 0-10 4.476562-10 10zm0 0"/></svg>